<?xml version="1.0" encoding="utf-8"?>
<!-- Generator: Adobe Illustrator 20.0.0, SVG Export Plug-In . SVG Version: 6.00 Build 0)  -->
<svg version="1.1" id="Layer_1" xmlns="http://www.w3.org/2000/svg" xmlns:xlink="http://www.w3.org/1999/xlink" x="0px" y="0px"
	 viewBox="0 0 10 10" style="enable-background:new 0 0 10 10;" xml:space="preserve">
<style type="text/css">
	.st0{fill:#FFFFFF;}
	.st1{fill:#DDDDDD;}
	.st2{fill:#F2F2F2;}
</style>
<path class="st0" d="M0,0h10v10H0V0z"/>
<path class="st1" d="M0,0h1v1H0V0z M4,4h2v2H4V4z M0,4h1v2H0V4z M0,9h1v1H0V9z M9,9h1v1H9V9z M9,0h1v1H9V0z M4,9h2v1H4V9z M4,0h2v1
	H4V0z M9,4h1v2H9V4z"/>
<path class="st2" d="M1,0h3v1H1V0z M1,4h3v1H1V4z M6,5h3v1H6V5z M6,9h3v1H6V9z M9,1h1v3H9V1z M5,1h1v3H5V1z M4,6h1v3H4V6z M0,6h1v3
	H0V6z"/>
</svg>
